<mxfile host="app.diagrams.net" modified="2023-11-06T00:35:52.764Z" agent="Mozilla/5.0 (Macintosh; Intel Mac OS X 10_15_7) AppleWebKit/537.36 (KHTML, like Gecko) Chrome/119.0.0.0 Safari/537.36" etag="wCSrj3qKAMp037q33aJf" version="22.0.8" type="github">
  <diagram name="Page-1" id="74e2e168-ea6b-b213-b513-2b3c1d86103e">
    <mxGraphModel dx="1053" dy="632" grid="1" gridSize="10" guides="1" tooltips="1" connect="1" arrows="1" fold="1" page="1" pageScale="1" pageWidth="1100" pageHeight="850" background="none" math="0" shadow="0">
      <root>
        <mxCell id="0" />
        <mxCell id="1" parent="0" />
        <mxCell id="77e6c97f196da883-1" value="Pool" style="swimlane;html=1;childLayout=stackLayout;startSize=20;rounded=0;shadow=0;labelBackgroundColor=none;strokeWidth=1;fontFamily=Verdana;fontSize=8;align=center;" parent="1" vertex="1">
          <mxGeometry x="80" y="40" width="1000" height="1020" as="geometry" />
        </mxCell>
        <mxCell id="77e6c97f196da883-2" value="クライアント" style="swimlane;html=1;startSize=20;" parent="77e6c97f196da883-1" vertex="1">
          <mxGeometry y="20" width="200" height="1000" as="geometry" />
        </mxCell>
        <mxCell id="77e6c97f196da883-13" value="次回の&lt;br&gt;アポとり&lt;br&gt;承認" style="rhombus;whiteSpace=wrap;html=1;rounded=0;shadow=0;labelBackgroundColor=none;strokeWidth=1;fontFamily=Verdana;fontSize=8;align=center;" parent="77e6c97f196da883-2" vertex="1">
          <mxGeometry x="60" y="390" width="80" height="60" as="geometry" />
        </mxCell>
        <mxCell id="FXEIGM_CnwJXzST2yHex-12" value="次回の&lt;br&gt;アポとり&lt;br&gt;承認" style="rhombus;whiteSpace=wrap;html=1;rounded=0;shadow=0;labelBackgroundColor=none;strokeWidth=1;fontFamily=Verdana;fontSize=8;align=center;" vertex="1" parent="77e6c97f196da883-2">
          <mxGeometry x="60" y="230" width="80" height="60" as="geometry" />
        </mxCell>
        <mxCell id="FXEIGM_CnwJXzST2yHex-18" value="見積・条件&lt;br&gt;合意" style="rhombus;whiteSpace=wrap;html=1;fontSize=8;fontFamily=Verdana;rounded=1;shadow=0;labelBackgroundColor=none;strokeWidth=1;arcSize=0;" vertex="1" parent="77e6c97f196da883-2">
          <mxGeometry x="60" y="630" width="80" height="55" as="geometry" />
        </mxCell>
        <mxCell id="FXEIGM_CnwJXzST2yHex-34" value="捺印" style="whiteSpace=wrap;html=1;fontSize=8;fontFamily=Verdana;rounded=1;shadow=0;labelBackgroundColor=none;strokeWidth=1;arcSize=13;" vertex="1" parent="77e6c97f196da883-2">
          <mxGeometry x="40" y="770" width="120" height="50" as="geometry" />
        </mxCell>
        <mxCell id="77e6c97f196da883-3" value="ディレクタ" style="swimlane;html=1;startSize=20;" parent="77e6c97f196da883-1" vertex="1">
          <mxGeometry x="200" y="20" width="200" height="1000" as="geometry" />
        </mxCell>
        <mxCell id="77e6c97f196da883-8" value="顧客選定&lt;br&gt;・ターゲット顧客か？" style="rounded=1;whiteSpace=wrap;html=1;shadow=0;labelBackgroundColor=none;strokeWidth=1;fontFamily=Verdana;fontSize=8;align=center;" parent="77e6c97f196da883-3" vertex="1">
          <mxGeometry x="40" y="60" width="120" height="60" as="geometry" />
        </mxCell>
        <mxCell id="77e6c97f196da883-11" value="訪問準備&lt;br&gt;・紹介資料作成&lt;br&gt;・アポとり" style="rounded=1;whiteSpace=wrap;html=1;shadow=0;labelBackgroundColor=none;strokeWidth=1;fontFamily=Verdana;fontSize=8;align=center;" parent="77e6c97f196da883-3" vertex="1">
          <mxGeometry x="40" y="150" width="120" height="60" as="geometry" />
        </mxCell>
        <mxCell id="77e6c97f196da883-26" style="edgeStyle=orthogonalEdgeStyle;rounded=1;html=1;labelBackgroundColor=none;startArrow=none;startFill=0;startSize=5;endArrow=classicThin;endFill=1;endSize=5;jettySize=auto;orthogonalLoop=1;strokeWidth=1;fontFamily=Verdana;fontSize=8" parent="77e6c97f196da883-3" source="77e6c97f196da883-8" target="77e6c97f196da883-11" edge="1">
          <mxGeometry relative="1" as="geometry" />
        </mxCell>
        <mxCell id="77e6c97f196da883-9" value="顧客訪問&lt;br&gt;・自己紹介&lt;br&gt;・ヒアリング&lt;br&gt;・粒度の粗い提案&lt;br&gt;・アポとり" style="rounded=1;whiteSpace=wrap;html=1;shadow=0;labelBackgroundColor=none;strokeWidth=1;fontFamily=Verdana;fontSize=8;align=center;" parent="77e6c97f196da883-3" vertex="1">
          <mxGeometry x="40" y="320" width="120" height="60" as="geometry" />
        </mxCell>
        <mxCell id="FXEIGM_CnwJXzST2yHex-8" value="提案資料作成&lt;br&gt;・ヒアリング項目の盛込み&lt;br&gt;・簡易見積作成" style="rounded=1;whiteSpace=wrap;html=1;shadow=0;labelBackgroundColor=none;strokeWidth=1;fontFamily=Verdana;fontSize=8;align=center;" vertex="1" parent="77e6c97f196da883-3">
          <mxGeometry x="40" y="460" width="120" height="60" as="geometry" />
        </mxCell>
        <mxCell id="77e6c97f196da883-10" value="訪問&lt;br&gt;・提案&lt;br&gt;・契約依頼" style="rounded=1;whiteSpace=wrap;html=1;shadow=0;labelBackgroundColor=none;strokeWidth=1;fontFamily=Verdana;fontSize=8;align=center;" parent="77e6c97f196da883-3" vertex="1">
          <mxGeometry x="40" y="560" width="120" height="60" as="geometry" />
        </mxCell>
        <mxCell id="FXEIGM_CnwJXzST2yHex-14" style="edgeStyle=orthogonalEdgeStyle;rounded=1;html=1;labelBackgroundColor=none;startArrow=none;startFill=0;startSize=5;endArrow=classicThin;endFill=1;endSize=5;jettySize=auto;orthogonalLoop=1;strokeWidth=1;fontFamily=Verdana;fontSize=8;entryX=0.5;entryY=0;entryDx=0;entryDy=0;exitX=0.5;exitY=1;exitDx=0;exitDy=0;" edge="1" parent="77e6c97f196da883-3" source="FXEIGM_CnwJXzST2yHex-8" target="77e6c97f196da883-10">
          <mxGeometry relative="1" as="geometry">
            <mxPoint x="90" y="430" as="sourcePoint" />
            <mxPoint x="90" y="470" as="targetPoint" />
          </mxGeometry>
        </mxCell>
        <mxCell id="FXEIGM_CnwJXzST2yHex-28" value="契約&lt;br&gt;・契約書作成&lt;br&gt;・契約書送付" style="whiteSpace=wrap;html=1;fontSize=8;fontFamily=Verdana;rounded=1;shadow=0;labelBackgroundColor=none;strokeWidth=1;arcSize=13;" vertex="1" parent="77e6c97f196da883-3">
          <mxGeometry x="40" y="700" width="120" height="60" as="geometry" />
        </mxCell>
        <mxCell id="77e6c97f196da883-4" value="デザイナ" style="swimlane;html=1;startSize=20;" parent="77e6c97f196da883-1" vertex="1">
          <mxGeometry x="400" y="20" width="200" height="1000" as="geometry" />
        </mxCell>
        <mxCell id="FXEIGM_CnwJXzST2yHex-36" value="デベロッパ" style="swimlane;html=1;startSize=20;" vertex="1" parent="77e6c97f196da883-1">
          <mxGeometry x="600" y="20" width="200" height="1000" as="geometry" />
        </mxCell>
        <mxCell id="77e6c97f196da883-6" value="Lane 5" style="swimlane;html=1;startSize=20;" parent="77e6c97f196da883-1" vertex="1">
          <mxGeometry x="800" y="20" width="200" height="1000" as="geometry" />
        </mxCell>
        <mxCell id="77e6c97f196da883-29" style="edgeStyle=orthogonalEdgeStyle;rounded=1;html=1;labelBackgroundColor=none;startArrow=none;startFill=0;startSize=5;endArrow=classicThin;endFill=1;endSize=5;jettySize=auto;orthogonalLoop=1;strokeWidth=1;fontFamily=Verdana;fontSize=8" parent="77e6c97f196da883-1" source="77e6c97f196da883-9" target="77e6c97f196da883-13" edge="1">
          <mxGeometry relative="1" as="geometry" />
        </mxCell>
        <mxCell id="FXEIGM_CnwJXzST2yHex-7" style="edgeStyle=orthogonalEdgeStyle;rounded=1;html=1;labelBackgroundColor=none;startArrow=none;startFill=0;startSize=5;endArrow=classicThin;endFill=1;endSize=5;jettySize=auto;orthogonalLoop=1;strokeWidth=1;fontFamily=Verdana;fontSize=8;exitX=0;exitY=0.5;exitDx=0;exitDy=0;entryX=0;entryY=0.5;entryDx=0;entryDy=0;" edge="1" parent="77e6c97f196da883-1" source="77e6c97f196da883-13" target="77e6c97f196da883-8">
          <mxGeometry relative="1" as="geometry">
            <Array as="points">
              <mxPoint x="20" y="440" />
              <mxPoint x="20" y="110" />
            </Array>
            <mxPoint x="570" y="755" as="sourcePoint" />
            <mxPoint x="240" y="360" as="targetPoint" />
          </mxGeometry>
        </mxCell>
        <mxCell id="FXEIGM_CnwJXzST2yHex-11" value="No" style="edgeLabel;html=1;align=center;verticalAlign=middle;resizable=0;points=[];" vertex="1" connectable="0" parent="FXEIGM_CnwJXzST2yHex-7">
          <mxGeometry x="-0.8955" y="-1" relative="1" as="geometry">
            <mxPoint x="12" y="1" as="offset" />
          </mxGeometry>
        </mxCell>
        <mxCell id="77e6c97f196da883-27" style="edgeStyle=orthogonalEdgeStyle;rounded=1;html=1;labelBackgroundColor=none;startArrow=none;startFill=0;startSize=5;endArrow=classicThin;endFill=1;endSize=5;jettySize=auto;orthogonalLoop=1;strokeWidth=1;fontFamily=Verdana;fontSize=8;" parent="77e6c97f196da883-1" source="77e6c97f196da883-11" target="FXEIGM_CnwJXzST2yHex-12" edge="1">
          <mxGeometry relative="1" as="geometry">
            <Array as="points" />
            <mxPoint x="240" y="260" as="sourcePoint" />
            <mxPoint x="240" y="270" as="targetPoint" />
          </mxGeometry>
        </mxCell>
        <mxCell id="itC4nrxpYKL9dR-Cb0CD-3" style="edgeStyle=orthogonalEdgeStyle;orthogonalLoop=1;jettySize=auto;html=1;entryX=0;entryY=0.5;entryDx=0;entryDy=0;rounded=1;exitX=0;exitY=0.5;exitDx=0;exitDy=0;" parent="77e6c97f196da883-1" source="FXEIGM_CnwJXzST2yHex-12" target="77e6c97f196da883-8" edge="1">
          <mxGeometry relative="1" as="geometry">
            <mxPoint x="200" y="300" as="sourcePoint" />
            <Array as="points">
              <mxPoint x="20" y="280" />
              <mxPoint x="20" y="110" />
            </Array>
          </mxGeometry>
        </mxCell>
        <mxCell id="FXEIGM_CnwJXzST2yHex-5" value="No" style="edgeLabel;html=1;align=center;verticalAlign=middle;resizable=0;points=[];" vertex="1" connectable="0" parent="itC4nrxpYKL9dR-Cb0CD-3">
          <mxGeometry x="-0.7257" y="1" relative="1" as="geometry">
            <mxPoint x="21" y="22" as="offset" />
          </mxGeometry>
        </mxCell>
        <mxCell id="FXEIGM_CnwJXzST2yHex-13" value="" style="edgeStyle=orthogonalEdgeStyle;rounded=1;orthogonalLoop=1;jettySize=auto;html=1;exitX=1;exitY=0.5;exitDx=0;exitDy=0;" edge="1" parent="77e6c97f196da883-1" source="FXEIGM_CnwJXzST2yHex-12" target="77e6c97f196da883-9">
          <mxGeometry relative="1" as="geometry" />
        </mxCell>
        <mxCell id="FXEIGM_CnwJXzST2yHex-17" value="Yes" style="edgeLabel;html=1;align=center;verticalAlign=middle;resizable=0;points=[];" vertex="1" connectable="0" parent="FXEIGM_CnwJXzST2yHex-13">
          <mxGeometry x="-0.0161" relative="1" as="geometry">
            <mxPoint x="-18" as="offset" />
          </mxGeometry>
        </mxCell>
        <mxCell id="FXEIGM_CnwJXzST2yHex-19" value="" style="edgeStyle=orthogonalEdgeStyle;orthogonalLoop=1;jettySize=auto;html=1;rounded=1;" edge="1" parent="77e6c97f196da883-1" source="77e6c97f196da883-10" target="FXEIGM_CnwJXzST2yHex-18">
          <mxGeometry relative="1" as="geometry" />
        </mxCell>
        <mxCell id="FXEIGM_CnwJXzST2yHex-20" style="edgeStyle=orthogonalEdgeStyle;rounded=1;orthogonalLoop=1;jettySize=auto;html=1;" edge="1" parent="77e6c97f196da883-1" source="77e6c97f196da883-13" target="FXEIGM_CnwJXzST2yHex-8">
          <mxGeometry relative="1" as="geometry" />
        </mxCell>
        <mxCell id="FXEIGM_CnwJXzST2yHex-21" value="Yes" style="edgeLabel;html=1;align=center;verticalAlign=middle;resizable=0;points=[];" vertex="1" connectable="0" parent="FXEIGM_CnwJXzST2yHex-20">
          <mxGeometry x="-0.0863" y="-1" relative="1" as="geometry">
            <mxPoint as="offset" />
          </mxGeometry>
        </mxCell>
        <mxCell id="FXEIGM_CnwJXzST2yHex-22" style="edgeStyle=orthogonalEdgeStyle;rounded=1;orthogonalLoop=1;jettySize=auto;html=1;entryX=0;entryY=0.5;entryDx=0;entryDy=0;" edge="1" parent="77e6c97f196da883-1" source="FXEIGM_CnwJXzST2yHex-18" target="FXEIGM_CnwJXzST2yHex-8">
          <mxGeometry relative="1" as="geometry">
            <mxPoint x="30" y="640" as="targetPoint" />
            <Array as="points">
              <mxPoint x="30" y="678" />
              <mxPoint x="30" y="510" />
            </Array>
          </mxGeometry>
        </mxCell>
        <mxCell id="FXEIGM_CnwJXzST2yHex-23" value="No" style="edgeLabel;html=1;align=center;verticalAlign=middle;resizable=0;points=[];" vertex="1" connectable="0" parent="FXEIGM_CnwJXzST2yHex-22">
          <mxGeometry x="-0.5864" relative="1" as="geometry">
            <mxPoint as="offset" />
          </mxGeometry>
        </mxCell>
        <mxCell id="FXEIGM_CnwJXzST2yHex-29" value="" style="edgeStyle=orthogonalEdgeStyle;rounded=1;orthogonalLoop=1;jettySize=auto;html=1;" edge="1" parent="77e6c97f196da883-1" source="FXEIGM_CnwJXzST2yHex-18" target="FXEIGM_CnwJXzST2yHex-28">
          <mxGeometry relative="1" as="geometry" />
        </mxCell>
        <mxCell id="FXEIGM_CnwJXzST2yHex-35" value="" style="edgeStyle=orthogonalEdgeStyle;rounded=1;orthogonalLoop=1;jettySize=auto;html=1;" edge="1" parent="77e6c97f196da883-1" source="FXEIGM_CnwJXzST2yHex-28" target="FXEIGM_CnwJXzST2yHex-34">
          <mxGeometry relative="1" as="geometry" />
        </mxCell>
        <mxCell id="FXEIGM_CnwJXzST2yHex-103" value="Pool" style="swimlane;html=1;childLayout=stackLayout;startSize=20;rounded=0;shadow=0;labelBackgroundColor=none;strokeWidth=1;fontFamily=Verdana;fontSize=8;align=center;" vertex="1" parent="1">
          <mxGeometry x="80" y="1240" width="1000" height="1020" as="geometry" />
        </mxCell>
        <mxCell id="FXEIGM_CnwJXzST2yHex-104" value="クライアント" style="swimlane;html=1;startSize=20;" vertex="1" parent="FXEIGM_CnwJXzST2yHex-103">
          <mxGeometry y="20" width="200" height="1000" as="geometry" />
        </mxCell>
        <mxCell id="FXEIGM_CnwJXzST2yHex-105" value="次回の&lt;br&gt;アポとり&lt;br&gt;承認" style="rhombus;whiteSpace=wrap;html=1;rounded=0;shadow=0;labelBackgroundColor=none;strokeWidth=1;fontFamily=Verdana;fontSize=8;align=center;" vertex="1" parent="FXEIGM_CnwJXzST2yHex-104">
          <mxGeometry x="60" y="390" width="80" height="60" as="geometry" />
        </mxCell>
        <mxCell id="FXEIGM_CnwJXzST2yHex-106" value="次回の&lt;br&gt;アポとり&lt;br&gt;承認" style="rhombus;whiteSpace=wrap;html=1;rounded=0;shadow=0;labelBackgroundColor=none;strokeWidth=1;fontFamily=Verdana;fontSize=8;align=center;" vertex="1" parent="FXEIGM_CnwJXzST2yHex-104">
          <mxGeometry x="60" y="230" width="80" height="60" as="geometry" />
        </mxCell>
        <mxCell id="FXEIGM_CnwJXzST2yHex-107" value="見積・条件&lt;br&gt;合意" style="rhombus;whiteSpace=wrap;html=1;fontSize=8;fontFamily=Verdana;rounded=1;shadow=0;labelBackgroundColor=none;strokeWidth=1;arcSize=0;" vertex="1" parent="FXEIGM_CnwJXzST2yHex-104">
          <mxGeometry x="60" y="630" width="80" height="55" as="geometry" />
        </mxCell>
        <mxCell id="FXEIGM_CnwJXzST2yHex-108" value="捺印" style="whiteSpace=wrap;html=1;fontSize=8;fontFamily=Verdana;rounded=1;shadow=0;labelBackgroundColor=none;strokeWidth=1;arcSize=13;" vertex="1" parent="FXEIGM_CnwJXzST2yHex-104">
          <mxGeometry x="40" y="770" width="120" height="50" as="geometry" />
        </mxCell>
        <mxCell id="FXEIGM_CnwJXzST2yHex-109" value="ディレクタ" style="swimlane;html=1;startSize=20;" vertex="1" parent="FXEIGM_CnwJXzST2yHex-103">
          <mxGeometry x="200" y="20" width="200" height="1000" as="geometry" />
        </mxCell>
        <mxCell id="FXEIGM_CnwJXzST2yHex-110" value="顧客選定&lt;br&gt;・ターゲット顧客か？" style="rounded=1;whiteSpace=wrap;html=1;shadow=0;labelBackgroundColor=none;strokeWidth=1;fontFamily=Verdana;fontSize=8;align=center;" vertex="1" parent="FXEIGM_CnwJXzST2yHex-109">
          <mxGeometry x="40" y="60" width="120" height="60" as="geometry" />
        </mxCell>
        <mxCell id="FXEIGM_CnwJXzST2yHex-111" value="訪問準備&lt;br&gt;・紹介資料作成&lt;br&gt;・アポとり" style="rounded=1;whiteSpace=wrap;html=1;shadow=0;labelBackgroundColor=none;strokeWidth=1;fontFamily=Verdana;fontSize=8;align=center;" vertex="1" parent="FXEIGM_CnwJXzST2yHex-109">
          <mxGeometry x="40" y="150" width="120" height="60" as="geometry" />
        </mxCell>
        <mxCell id="FXEIGM_CnwJXzST2yHex-112" style="edgeStyle=orthogonalEdgeStyle;rounded=1;html=1;labelBackgroundColor=none;startArrow=none;startFill=0;startSize=5;endArrow=classicThin;endFill=1;endSize=5;jettySize=auto;orthogonalLoop=1;strokeWidth=1;fontFamily=Verdana;fontSize=8" edge="1" parent="FXEIGM_CnwJXzST2yHex-109" source="FXEIGM_CnwJXzST2yHex-110" target="FXEIGM_CnwJXzST2yHex-111">
          <mxGeometry relative="1" as="geometry" />
        </mxCell>
        <mxCell id="FXEIGM_CnwJXzST2yHex-113" value="顧客訪問&lt;br&gt;・自己紹介&lt;br&gt;・ヒアリング&lt;br&gt;・粒度の粗い提案&lt;br&gt;・アポとり" style="rounded=1;whiteSpace=wrap;html=1;shadow=0;labelBackgroundColor=none;strokeWidth=1;fontFamily=Verdana;fontSize=8;align=center;" vertex="1" parent="FXEIGM_CnwJXzST2yHex-109">
          <mxGeometry x="40" y="320" width="120" height="60" as="geometry" />
        </mxCell>
        <mxCell id="FXEIGM_CnwJXzST2yHex-114" value="提案資料作成&lt;br&gt;・ヒアリング項目の盛込み&lt;br&gt;・簡易見積作成" style="rounded=1;whiteSpace=wrap;html=1;shadow=0;labelBackgroundColor=none;strokeWidth=1;fontFamily=Verdana;fontSize=8;align=center;" vertex="1" parent="FXEIGM_CnwJXzST2yHex-109">
          <mxGeometry x="40" y="460" width="120" height="60" as="geometry" />
        </mxCell>
        <mxCell id="FXEIGM_CnwJXzST2yHex-115" value="訪問&lt;br&gt;・提案&lt;br&gt;・契約依頼" style="rounded=1;whiteSpace=wrap;html=1;shadow=0;labelBackgroundColor=none;strokeWidth=1;fontFamily=Verdana;fontSize=8;align=center;" vertex="1" parent="FXEIGM_CnwJXzST2yHex-109">
          <mxGeometry x="40" y="560" width="120" height="60" as="geometry" />
        </mxCell>
        <mxCell id="FXEIGM_CnwJXzST2yHex-116" style="edgeStyle=orthogonalEdgeStyle;rounded=1;html=1;labelBackgroundColor=none;startArrow=none;startFill=0;startSize=5;endArrow=classicThin;endFill=1;endSize=5;jettySize=auto;orthogonalLoop=1;strokeWidth=1;fontFamily=Verdana;fontSize=8;entryX=0.5;entryY=0;entryDx=0;entryDy=0;exitX=0.5;exitY=1;exitDx=0;exitDy=0;" edge="1" parent="FXEIGM_CnwJXzST2yHex-109" source="FXEIGM_CnwJXzST2yHex-114" target="FXEIGM_CnwJXzST2yHex-115">
          <mxGeometry relative="1" as="geometry">
            <mxPoint x="90" y="430" as="sourcePoint" />
            <mxPoint x="90" y="470" as="targetPoint" />
          </mxGeometry>
        </mxCell>
        <mxCell id="FXEIGM_CnwJXzST2yHex-117" value="契約&lt;br&gt;・契約書作成&lt;br&gt;・契約書送付" style="whiteSpace=wrap;html=1;fontSize=8;fontFamily=Verdana;rounded=1;shadow=0;labelBackgroundColor=none;strokeWidth=1;arcSize=13;" vertex="1" parent="FXEIGM_CnwJXzST2yHex-109">
          <mxGeometry x="40" y="700" width="120" height="60" as="geometry" />
        </mxCell>
        <mxCell id="FXEIGM_CnwJXzST2yHex-118" value="デザイナ" style="swimlane;html=1;startSize=20;" vertex="1" parent="FXEIGM_CnwJXzST2yHex-103">
          <mxGeometry x="400" y="20" width="200" height="1000" as="geometry" />
        </mxCell>
        <mxCell id="FXEIGM_CnwJXzST2yHex-119" value="デベロッパ" style="swimlane;html=1;startSize=20;" vertex="1" parent="FXEIGM_CnwJXzST2yHex-103">
          <mxGeometry x="600" y="20" width="200" height="1000" as="geometry" />
        </mxCell>
        <mxCell id="FXEIGM_CnwJXzST2yHex-120" value="Lane 5" style="swimlane;html=1;startSize=20;" vertex="1" parent="FXEIGM_CnwJXzST2yHex-103">
          <mxGeometry x="800" y="20" width="200" height="1000" as="geometry" />
        </mxCell>
        <mxCell id="FXEIGM_CnwJXzST2yHex-121" style="edgeStyle=orthogonalEdgeStyle;rounded=1;html=1;labelBackgroundColor=none;startArrow=none;startFill=0;startSize=5;endArrow=classicThin;endFill=1;endSize=5;jettySize=auto;orthogonalLoop=1;strokeWidth=1;fontFamily=Verdana;fontSize=8" edge="1" parent="FXEIGM_CnwJXzST2yHex-103" source="FXEIGM_CnwJXzST2yHex-113" target="FXEIGM_CnwJXzST2yHex-105">
          <mxGeometry relative="1" as="geometry" />
        </mxCell>
        <mxCell id="FXEIGM_CnwJXzST2yHex-122" style="edgeStyle=orthogonalEdgeStyle;rounded=1;html=1;labelBackgroundColor=none;startArrow=none;startFill=0;startSize=5;endArrow=classicThin;endFill=1;endSize=5;jettySize=auto;orthogonalLoop=1;strokeWidth=1;fontFamily=Verdana;fontSize=8;exitX=0;exitY=0.5;exitDx=0;exitDy=0;entryX=0;entryY=0.5;entryDx=0;entryDy=0;" edge="1" parent="FXEIGM_CnwJXzST2yHex-103" source="FXEIGM_CnwJXzST2yHex-105" target="FXEIGM_CnwJXzST2yHex-110">
          <mxGeometry relative="1" as="geometry">
            <Array as="points">
              <mxPoint x="20" y="440" />
              <mxPoint x="20" y="110" />
            </Array>
            <mxPoint x="570" y="755" as="sourcePoint" />
            <mxPoint x="240" y="360" as="targetPoint" />
          </mxGeometry>
        </mxCell>
        <mxCell id="FXEIGM_CnwJXzST2yHex-123" value="No" style="edgeLabel;html=1;align=center;verticalAlign=middle;resizable=0;points=[];" vertex="1" connectable="0" parent="FXEIGM_CnwJXzST2yHex-122">
          <mxGeometry x="-0.8955" y="-1" relative="1" as="geometry">
            <mxPoint x="12" y="1" as="offset" />
          </mxGeometry>
        </mxCell>
        <mxCell id="FXEIGM_CnwJXzST2yHex-124" style="edgeStyle=orthogonalEdgeStyle;rounded=1;html=1;labelBackgroundColor=none;startArrow=none;startFill=0;startSize=5;endArrow=classicThin;endFill=1;endSize=5;jettySize=auto;orthogonalLoop=1;strokeWidth=1;fontFamily=Verdana;fontSize=8;" edge="1" parent="FXEIGM_CnwJXzST2yHex-103" source="FXEIGM_CnwJXzST2yHex-111" target="FXEIGM_CnwJXzST2yHex-106">
          <mxGeometry relative="1" as="geometry">
            <Array as="points" />
            <mxPoint x="240" y="260" as="sourcePoint" />
            <mxPoint x="240" y="270" as="targetPoint" />
          </mxGeometry>
        </mxCell>
        <mxCell id="FXEIGM_CnwJXzST2yHex-125" style="edgeStyle=orthogonalEdgeStyle;orthogonalLoop=1;jettySize=auto;html=1;entryX=0;entryY=0.5;entryDx=0;entryDy=0;rounded=1;exitX=0;exitY=0.5;exitDx=0;exitDy=0;" edge="1" parent="FXEIGM_CnwJXzST2yHex-103" source="FXEIGM_CnwJXzST2yHex-106" target="FXEIGM_CnwJXzST2yHex-110">
          <mxGeometry relative="1" as="geometry">
            <mxPoint x="200" y="300" as="sourcePoint" />
            <Array as="points">
              <mxPoint x="20" y="280" />
              <mxPoint x="20" y="110" />
            </Array>
          </mxGeometry>
        </mxCell>
        <mxCell id="FXEIGM_CnwJXzST2yHex-126" value="No" style="edgeLabel;html=1;align=center;verticalAlign=middle;resizable=0;points=[];" vertex="1" connectable="0" parent="FXEIGM_CnwJXzST2yHex-125">
          <mxGeometry x="-0.7257" y="1" relative="1" as="geometry">
            <mxPoint x="21" y="22" as="offset" />
          </mxGeometry>
        </mxCell>
        <mxCell id="FXEIGM_CnwJXzST2yHex-127" value="" style="edgeStyle=orthogonalEdgeStyle;rounded=1;orthogonalLoop=1;jettySize=auto;html=1;exitX=1;exitY=0.5;exitDx=0;exitDy=0;" edge="1" parent="FXEIGM_CnwJXzST2yHex-103" source="FXEIGM_CnwJXzST2yHex-106" target="FXEIGM_CnwJXzST2yHex-113">
          <mxGeometry relative="1" as="geometry" />
        </mxCell>
        <mxCell id="FXEIGM_CnwJXzST2yHex-128" value="Yes" style="edgeLabel;html=1;align=center;verticalAlign=middle;resizable=0;points=[];" vertex="1" connectable="0" parent="FXEIGM_CnwJXzST2yHex-127">
          <mxGeometry x="-0.0161" relative="1" as="geometry">
            <mxPoint x="-18" as="offset" />
          </mxGeometry>
        </mxCell>
        <mxCell id="FXEIGM_CnwJXzST2yHex-129" value="" style="edgeStyle=orthogonalEdgeStyle;orthogonalLoop=1;jettySize=auto;html=1;rounded=1;" edge="1" parent="FXEIGM_CnwJXzST2yHex-103" source="FXEIGM_CnwJXzST2yHex-115" target="FXEIGM_CnwJXzST2yHex-107">
          <mxGeometry relative="1" as="geometry" />
        </mxCell>
        <mxCell id="FXEIGM_CnwJXzST2yHex-130" style="edgeStyle=orthogonalEdgeStyle;rounded=1;orthogonalLoop=1;jettySize=auto;html=1;" edge="1" parent="FXEIGM_CnwJXzST2yHex-103" source="FXEIGM_CnwJXzST2yHex-105" target="FXEIGM_CnwJXzST2yHex-114">
          <mxGeometry relative="1" as="geometry" />
        </mxCell>
        <mxCell id="FXEIGM_CnwJXzST2yHex-131" value="Yes" style="edgeLabel;html=1;align=center;verticalAlign=middle;resizable=0;points=[];" vertex="1" connectable="0" parent="FXEIGM_CnwJXzST2yHex-130">
          <mxGeometry x="-0.0863" y="-1" relative="1" as="geometry">
            <mxPoint as="offset" />
          </mxGeometry>
        </mxCell>
        <mxCell id="FXEIGM_CnwJXzST2yHex-132" style="edgeStyle=orthogonalEdgeStyle;rounded=1;orthogonalLoop=1;jettySize=auto;html=1;entryX=0;entryY=0.5;entryDx=0;entryDy=0;" edge="1" parent="FXEIGM_CnwJXzST2yHex-103" source="FXEIGM_CnwJXzST2yHex-107" target="FXEIGM_CnwJXzST2yHex-114">
          <mxGeometry relative="1" as="geometry">
            <mxPoint x="30" y="640" as="targetPoint" />
            <Array as="points">
              <mxPoint x="30" y="678" />
              <mxPoint x="30" y="510" />
            </Array>
          </mxGeometry>
        </mxCell>
        <mxCell id="FXEIGM_CnwJXzST2yHex-133" value="No" style="edgeLabel;html=1;align=center;verticalAlign=middle;resizable=0;points=[];" vertex="1" connectable="0" parent="FXEIGM_CnwJXzST2yHex-132">
          <mxGeometry x="-0.5864" relative="1" as="geometry">
            <mxPoint as="offset" />
          </mxGeometry>
        </mxCell>
        <mxCell id="FXEIGM_CnwJXzST2yHex-134" value="" style="edgeStyle=orthogonalEdgeStyle;rounded=1;orthogonalLoop=1;jettySize=auto;html=1;" edge="1" parent="FXEIGM_CnwJXzST2yHex-103" source="FXEIGM_CnwJXzST2yHex-107" target="FXEIGM_CnwJXzST2yHex-117">
          <mxGeometry relative="1" as="geometry" />
        </mxCell>
        <mxCell id="FXEIGM_CnwJXzST2yHex-135" value="" style="edgeStyle=orthogonalEdgeStyle;rounded=1;orthogonalLoop=1;jettySize=auto;html=1;" edge="1" parent="FXEIGM_CnwJXzST2yHex-103" source="FXEIGM_CnwJXzST2yHex-117" target="FXEIGM_CnwJXzST2yHex-108">
          <mxGeometry relative="1" as="geometry" />
        </mxCell>
      </root>
    </mxGraphModel>
  </diagram>
</mxfile>
